<?xml version="1.0" encoding="UTF-8" standalone="no"?>
<!DOCTYPE svg PUBLIC "-//W3C//DTD SVG 1.1//EN" "http://www.w3.org/Graphics/SVG/1.1/DTD/svg11.dtd">
<svg width="100%" height="100%" viewBox="0 0 600 100" version="1.1" xmlns="http://www.w3.org/2000/svg" xmlns:xlink="http://www.w3.org/1999/xlink" xml:space="preserve" xmlns:serif="http://www.serif.com/" style="fill-rule:evenodd;clip-rule:evenodd;stroke-linejoin:round;stroke-miterlimit:2;">
    <g transform="matrix(1,0,0,1,0,-25)">
        <rect x="-8.602" y="-4.14" width="662.509" height="182.796" style="fill:rgb(0,192,255);"/>
    </g>
    <g transform="matrix(1,0,0,1,-54.0207,-35.7758)">
        <g transform="matrix(30,0,0,30,206.015,97.7957)">
            <path d="M0.527,-0.386L0.189,-0.386L0.189,-0.66L0.08,-0.66L0.08,-0L0.189,-0L0.189,-0.291L0.527,-0.291L0.527,-0L0.636,-0L0.636,-0.66L0.527,-0.66L0.527,-0.386Z" style="fill:rgb(65,65,65);fill-rule:nonzero;"/>
        </g>
        <g transform="matrix(30,0,0,30,227.495,97.7957)">
            <path d="M0.326,0.008C0.509,0.008 0.58,-0.068 0.58,-0.231L0.58,-0.329C0.58,-0.492 0.509,-0.568 0.326,-0.568L0.305,-0.568C0.122,-0.568 0.05,-0.492 0.05,-0.329L0.05,-0.231C0.05,-0.068 0.122,0.008 0.305,0.008L0.326,0.008ZM0.307,-0.084C0.198,-0.084 0.155,-0.124 0.155,-0.224L0.155,-0.336C0.155,-0.436 0.198,-0.476 0.307,-0.476L0.324,-0.476C0.433,-0.476 0.475,-0.436 0.475,-0.336L0.475,-0.224C0.475,-0.124 0.433,-0.084 0.324,-0.084L0.307,-0.084Z" style="fill:rgb(65,65,65);fill-rule:nonzero;"/>
        </g>
        <g transform="matrix(30,0,0,30,246.395,97.7957)">
            <path d="M0.37,-0.564C0.34,-0.564 0.306,-0.56 0.275,-0.553L0.178,-0.487L0.178,-0.56L0.073,-0.56L0.073,-0L0.178,-0L0.178,-0.406C0.237,-0.444 0.297,-0.466 0.369,-0.466C0.388,-0.466 0.406,-0.465 0.422,-0.462L0.422,-0.56C0.407,-0.563 0.389,-0.564 0.37,-0.564Z" style="fill:rgb(65,65,65);fill-rule:nonzero;"/>
        </g>
        <g transform="matrix(30,0,0,30,259.385,97.7957)">
            <path d="M0.178,-0.628L0.178,-0.73L0.073,-0.73L0.073,-0.628L0.178,-0.628ZM0.178,-0L0.178,-0.56L0.073,-0.56L0.073,-0L0.178,-0Z" style="fill:rgb(65,65,65);fill-rule:nonzero;"/>
        </g>
        <g transform="matrix(30,0,0,30,266.915,97.7957)">
            <path d="M0.041,-0.56L0.041,-0.467L0.357,-0.467L0.034,-0.083L0.034,-0L0.482,-0L0.482,-0.093L0.166,-0.093L0.489,-0.477L0.489,-0.56L0.041,-0.56Z" style="fill:rgb(65,65,65);fill-rule:nonzero;"/>
        </g>
        <g transform="matrix(30,0,0,30,282.245,97.7957)">
            <path d="M0.326,0.008C0.509,0.008 0.58,-0.068 0.58,-0.231L0.58,-0.329C0.58,-0.492 0.509,-0.568 0.326,-0.568L0.305,-0.568C0.122,-0.568 0.05,-0.492 0.05,-0.329L0.05,-0.231C0.05,-0.068 0.122,0.008 0.305,0.008L0.326,0.008ZM0.307,-0.084C0.198,-0.084 0.155,-0.124 0.155,-0.224L0.155,-0.336C0.155,-0.436 0.198,-0.476 0.307,-0.476L0.324,-0.476C0.433,-0.476 0.475,-0.436 0.475,-0.336L0.475,-0.224C0.475,-0.124 0.433,-0.084 0.324,-0.084L0.307,-0.084Z" style="fill:rgb(65,65,65);fill-rule:nonzero;"/>
        </g>
        <g transform="matrix(30,0,0,30,301.145,97.7957)">
            <path d="M0.387,-0.565C0.348,-0.565 0.307,-0.56 0.275,-0.553L0.178,-0.499L0.178,-0.56L0.073,-0.56L0.073,-0L0.178,-0L0.178,-0.424C0.237,-0.455 0.299,-0.472 0.357,-0.472L0.36,-0.472C0.449,-0.472 0.481,-0.432 0.481,-0.328L0.481,-0L0.586,-0L0.586,-0.34C0.586,-0.499 0.532,-0.565 0.391,-0.565L0.387,-0.565Z" style="fill:rgb(65,65,65);fill-rule:nonzero;"/>
        </g>
        <g transform="matrix(30,0,0,30,320.765,97.7957)">
            <path d="M0.552,-0.169L0.182,-0.66L0.08,-0.66L0.08,-0L0.184,-0L0.184,-0.492L0.554,-0L0.656,-0L0.656,-0.66L0.552,-0.66L0.552,-0.169Z" style="fill:rgb(65,65,65);fill-rule:nonzero;"/>
        </g>
        <g transform="matrix(30,0,0,30,342.845,97.7957)">
            <path d="M0.546,-0L0.546,-0.095L0.189,-0.095L0.189,-0.289L0.51,-0.289L0.51,-0.383L0.189,-0.383L0.189,-0.565L0.546,-0.565L0.546,-0.66L0.08,-0.66L0.08,-0L0.546,-0Z" style="fill:rgb(65,65,65);fill-rule:nonzero;"/>
        </g>
        <g transform="matrix(30,0,0,30,361.025,97.7957)">
            <path d="M0.011,-0.66L0.011,-0.565L0.246,-0.565L0.246,-0L0.355,-0L0.355,-0.565L0.591,-0.565L0.591,-0.66L0.011,-0.66Z" style="fill:rgb(65,65,65);fill-rule:nonzero;"/>
        </g>
        <g transform="matrix(30,0,0,30,385.925,97.7957)">
            <path d="M0.36,-0C0.562,-0 0.656,-0.08 0.656,-0.275L0.656,-0.395C0.656,-0.582 0.561,-0.66 0.36,-0.66L0.08,-0.66L0.08,-0L0.36,-0ZM0.189,-0.565L0.358,-0.565C0.485,-0.565 0.547,-0.522 0.547,-0.401L0.547,-0.269C0.547,-0.141 0.486,-0.095 0.358,-0.095L0.189,-0.095L0.189,-0.565Z" style="fill:rgb(65,65,65);fill-rule:nonzero;"/>
        </g>
        <g transform="matrix(30,0,0,30,407.195,97.7957)">
            <path d="M0.326,0.008C0.509,0.008 0.58,-0.068 0.58,-0.231L0.58,-0.329C0.58,-0.492 0.509,-0.568 0.326,-0.568L0.305,-0.568C0.122,-0.568 0.05,-0.492 0.05,-0.329L0.05,-0.231C0.05,-0.068 0.122,0.008 0.305,0.008L0.326,0.008ZM0.307,-0.084C0.198,-0.084 0.155,-0.124 0.155,-0.224L0.155,-0.336C0.155,-0.436 0.198,-0.476 0.307,-0.476L0.324,-0.476C0.433,-0.476 0.475,-0.436 0.475,-0.336L0.475,-0.224C0.475,-0.124 0.433,-0.084 0.324,-0.084L0.307,-0.084Z" style="fill:rgb(65,65,65);fill-rule:nonzero;"/>
        </g>
        <g transform="matrix(30,0,0,30,425.195,97.7957)">
            <path d="M0.329,-0L0.45,-0.395L0.46,-0.395L0.581,-0L0.733,-0L0.894,-0.56L0.788,-0.56L0.66,-0.104L0.645,-0.104L0.515,-0.527L0.395,-0.527L0.265,-0.104L0.25,-0.104L0.122,-0.56L0.016,-0.56L0.177,-0L0.329,-0Z" style="fill:rgb(65,65,65);fill-rule:nonzero;"/>
        </g>
        <g transform="matrix(30,0,0,30,452.495,97.7957)">
            <path d="M0.387,-0.565C0.348,-0.565 0.307,-0.56 0.275,-0.553L0.178,-0.499L0.178,-0.56L0.073,-0.56L0.073,-0L0.178,-0L0.178,-0.424C0.237,-0.455 0.299,-0.472 0.357,-0.472L0.36,-0.472C0.449,-0.472 0.481,-0.432 0.481,-0.328L0.481,-0L0.586,-0L0.586,-0.34C0.586,-0.499 0.532,-0.565 0.391,-0.565L0.387,-0.565Z" style="fill:rgb(65,65,65);fill-rule:nonzero;"/>
        </g>
        <g transform="matrix(30,0,0,30,472.115,97.7957)">
            <rect x="0.073" y="-0.73" width="0.105" height="0.73" style="fill:rgb(65,65,65);fill-rule:nonzero;"/>
        </g>
        <g transform="matrix(30,0,0,30,479.645,97.7957)">
            <path d="M0.326,0.008C0.509,0.008 0.58,-0.068 0.58,-0.231L0.58,-0.329C0.58,-0.492 0.509,-0.568 0.326,-0.568L0.305,-0.568C0.122,-0.568 0.05,-0.492 0.05,-0.329L0.05,-0.231C0.05,-0.068 0.122,0.008 0.305,0.008L0.326,0.008ZM0.307,-0.084C0.198,-0.084 0.155,-0.124 0.155,-0.224L0.155,-0.336C0.155,-0.436 0.198,-0.476 0.307,-0.476L0.324,-0.476C0.433,-0.476 0.475,-0.436 0.475,-0.336L0.475,-0.224C0.475,-0.124 0.433,-0.084 0.324,-0.084L0.307,-0.084Z" style="fill:rgb(65,65,65);fill-rule:nonzero;"/>
        </g>
        <g transform="matrix(30,0,0,30,498.545,97.7957)">
            <path d="M0.295,-0.566C0.228,-0.566 0.149,-0.553 0.093,-0.538L0.093,-0.446C0.145,-0.461 0.224,-0.472 0.294,-0.472L0.296,-0.472C0.423,-0.472 0.45,-0.443 0.45,-0.352L0.45,-0.325C0.386,-0.335 0.327,-0.34 0.286,-0.34C0.202,-0.34 0.147,-0.33 0.113,-0.31C0.069,-0.283 0.051,-0.243 0.051,-0.178L0.051,-0.158C0.051,-0.055 0.107,0.005 0.229,0.005C0.283,0.005 0.325,-0 0.353,-0.007L0.45,-0.06L0.45,-0L0.555,-0L0.555,-0.362C0.555,-0.516 0.495,-0.566 0.306,-0.566L0.295,-0.566ZM0.263,-0.084C0.18,-0.084 0.156,-0.111 0.156,-0.166L0.156,-0.179C0.156,-0.235 0.183,-0.255 0.292,-0.255C0.339,-0.255 0.398,-0.253 0.45,-0.244L0.45,-0.133C0.385,-0.098 0.322,-0.084 0.263,-0.084Z" style="fill:rgb(65,65,65);fill-rule:nonzero;"/>
        </g>
        <g transform="matrix(30,0,0,30,517.235,97.7957)">
            <path d="M0.466,-0.534C0.403,-0.555 0.346,-0.565 0.288,-0.565L0.279,-0.565C0.117,-0.565 0.05,-0.495 0.05,-0.325L0.05,-0.205C0.05,-0.058 0.107,0.005 0.253,0.005L0.257,0.005C0.293,0.005 0.336,-0 0.369,-0.007L0.466,-0.061L0.466,-0L0.571,-0L0.571,-0.73L0.466,-0.73L0.466,-0.534ZM0.284,-0.088C0.189,-0.088 0.155,-0.119 0.155,-0.222L0.155,-0.332C0.155,-0.44 0.188,-0.472 0.303,-0.472C0.352,-0.472 0.405,-0.462 0.466,-0.441L0.466,-0.136C0.403,-0.103 0.344,-0.088 0.287,-0.088L0.284,-0.088Z" style="fill:rgb(65,65,65);fill-rule:nonzero;"/>
        </g>
        <g transform="matrix(30,0,0,30,543.755,97.7957)">
            <path d="M0.368,0.008C0.431,0.008 0.517,-0.002 0.581,-0.023L0.581,-0.119C0.502,-0.098 0.436,-0.089 0.375,-0.089L0.357,-0.089C0.208,-0.089 0.162,-0.136 0.162,-0.272L0.162,-0.418C0.162,-0.531 0.224,-0.573 0.33,-0.573L0.34,-0.573C0.451,-0.573 0.497,-0.541 0.497,-0.452L0.497,-0.395L0.606,-0.395L0.606,-0.464C0.606,-0.604 0.517,-0.668 0.346,-0.668L0.332,-0.668C0.142,-0.668 0.053,-0.585 0.053,-0.402L0.053,-0.278C0.053,-0.058 0.155,0.008 0.36,0.008L0.368,0.008Z" style="fill:rgb(65,65,65);fill-rule:nonzero;"/>
        </g>
        <g transform="matrix(30,0,0,30,563.255,97.7957)">
            <path d="M0.308,-0.236C0.388,-0.236 0.461,-0.239 0.553,-0.246L0.553,-0.347C0.553,-0.502 0.488,-0.568 0.32,-0.568L0.301,-0.568C0.125,-0.568 0.05,-0.493 0.05,-0.329L0.05,-0.231C0.05,-0.067 0.124,0.008 0.318,0.008L0.333,0.008C0.401,0.008 0.48,-0.001 0.535,-0.019L0.535,-0.111C0.465,-0.091 0.408,-0.085 0.345,-0.085L0.336,-0.085C0.198,-0.085 0.155,-0.123 0.155,-0.222L0.155,-0.24C0.212,-0.237 0.261,-0.236 0.308,-0.236ZM0.314,-0.476C0.416,-0.476 0.448,-0.443 0.448,-0.343L0.448,-0.324C0.395,-0.321 0.347,-0.319 0.298,-0.319C0.253,-0.319 0.208,-0.32 0.155,-0.323L0.155,-0.338C0.155,-0.436 0.2,-0.476 0.298,-0.476L0.314,-0.476Z" style="fill:rgb(65,65,65);fill-rule:nonzero;"/>
        </g>
        <g transform="matrix(30,0,0,30,581.195,97.7957)">
            <path d="M0.387,-0.565C0.348,-0.565 0.307,-0.56 0.275,-0.553L0.178,-0.499L0.178,-0.56L0.073,-0.56L0.073,-0L0.178,-0L0.178,-0.424C0.237,-0.455 0.299,-0.472 0.357,-0.472L0.36,-0.472C0.449,-0.472 0.481,-0.432 0.481,-0.328L0.481,-0L0.586,-0L0.586,-0.34C0.586,-0.499 0.532,-0.565 0.391,-0.565L0.387,-0.565Z" style="fill:rgb(65,65,65);fill-rule:nonzero;"/>
        </g>
        <g transform="matrix(30,0,0,30,600.815,97.7957)">
            <path d="M0.279,-0.084C0.195,-0.084 0.173,-0.108 0.173,-0.19L0.173,-0.468L0.372,-0.468L0.372,-0.56L0.173,-0.56L0.173,-0.66L0.068,-0.66L0.068,-0.178C0.068,-0.04 0.132,0.008 0.254,0.008L0.266,0.008C0.298,0.008 0.337,0.005 0.387,-0.007L0.387,-0.097C0.347,-0.088 0.319,-0.084 0.281,-0.084L0.279,-0.084Z" style="fill:rgb(65,65,65);fill-rule:nonzero;"/>
        </g>
        <g transform="matrix(30,0,0,30,612.755,97.7957)">
            <path d="M0.308,-0.236C0.388,-0.236 0.461,-0.239 0.553,-0.246L0.553,-0.347C0.553,-0.502 0.488,-0.568 0.32,-0.568L0.301,-0.568C0.125,-0.568 0.05,-0.493 0.05,-0.329L0.05,-0.231C0.05,-0.067 0.124,0.008 0.318,0.008L0.333,0.008C0.401,0.008 0.48,-0.001 0.535,-0.019L0.535,-0.111C0.465,-0.091 0.408,-0.085 0.345,-0.085L0.336,-0.085C0.198,-0.085 0.155,-0.123 0.155,-0.222L0.155,-0.24C0.212,-0.237 0.261,-0.236 0.308,-0.236ZM0.314,-0.476C0.416,-0.476 0.448,-0.443 0.448,-0.343L0.448,-0.324C0.395,-0.321 0.347,-0.319 0.298,-0.319C0.253,-0.319 0.208,-0.32 0.155,-0.323L0.155,-0.338C0.155,-0.436 0.2,-0.476 0.298,-0.476L0.314,-0.476Z" style="fill:rgb(65,65,65);fill-rule:nonzero;"/>
        </g>
        <g transform="matrix(30,0,0,30,630.695,97.7957)">
            <path d="M0.37,-0.564C0.34,-0.564 0.306,-0.56 0.275,-0.553L0.178,-0.487L0.178,-0.56L0.073,-0.56L0.073,-0L0.178,-0L0.178,-0.406C0.237,-0.444 0.297,-0.466 0.369,-0.466C0.388,-0.466 0.406,-0.465 0.422,-0.462L0.422,-0.56C0.407,-0.563 0.389,-0.564 0.37,-0.564Z" style="fill:rgb(65,65,65);fill-rule:nonzero;"/>
        </g>
    </g>
    <g id="globe" transform="matrix(4.16667,0,0,4.16667,-1276.33,-788.896)">
        <path d="M309,192L308,193L307,192L307,191L309,191L309,192ZM306,194L305,193L305,192L306,192L307,193L306,194ZM321,186L322,186L323,187L322,188L321,187L321,186ZM324,185L326,186L324.903,188.003L324,188L324,187L323,186L324,185ZM333.236,222.237L332,221L332,219L330,215L332,213L331,211L331,209L329,208L327,208L325,209L323,209L321,208L320,205L320,202L321,201L321,198L322,197L324,197L326,196L329,196L330,197L332,198L333,197L335,196L337,197L339.118,197C338.854,195.975 338.527,194.976 338.153,194L337,194L336,193L335,193L335,192L333,190L332,191L334,193L332,194L331,193L331,192L330,190L329,191L327,192L326,193L324,193L323,191L324,189L326,189L327,190L327,188L328,187L330,187L331,186L329,185L328,184L328,181.027C323.979,178.222 319.189,176.447 314.008,176.078C308.3,176.48 303.254,178.686 299,182L300,183L302,182L303,181L305,181L306,182L307,184L305,184L302,185L301,184L298,185L298,187L299,187L300,188L301,186L305,186L307,185L308,186L309,188L310,188L308,190L305,189L305,191L302,191L300,193L299,197L297,199L295,198L292,198L291,199L292,201L293,200L294,200L294,201L295,202L295,203L297,203L298,202L300,202L301,204L302,203L304,203L306,204L307,206L308,206L309,207L311,208L312,210L311,213L309,214L309,216L307,217L307,220L305,221L304,224L305,226L306,227L304,227L303,226L302,223L301,221L301,219L299,215L299,213L297,213L295,211L294,209L295,206L296,205L296,204L294,204L293.016,203L291,203L290,202L288,201L288,204C288,218.791 299.471,230.895 314,231.921C321.684,231.377 328.509,227.737 333.236,222.237Z" style="fill:rgb(38,161,219);fill-rule:nonzero;"/>
        <path d="M329,185L331,186L330,187L328,187L327,188L327,190L326,189L324,189L323,191L324,193L326,193L327,192L329,191L330,190L331,192L331,193L332,194L334,193L332,191L333,190L335,192L335,193L336,193L337,194L338.153,194C336.135,188.721 332.564,184.213 328,181.027L328,184L329,185Z" style="fill:rgb(250,212,98);fill-rule:nonzero;"/>
        <path d="M339.118,197L337,197L335,196L333,197L332,198L330,197L329,196L326,196L324,197L322,197L321,198L321,201L320,202L320,205L321,208L323,209L325,209L327,208L329,208L331,209L331,211L332,213L330,215L332,219L332,221L333.236,222.237C337.448,217.337 340,210.968 340,204C340,201.583 339.693,199.237 339.118,197Z" style="fill:rgb(250,212,98);fill-rule:nonzero;"/>
        <path d="M307,192L308,193L309,192L309,191L307,191L307,192Z" style="fill:rgb(250,212,98);fill-rule:nonzero;"/>
        <path d="M305,192L305,193L306,194L307,193L306,192L305,192Z" style="fill:rgb(250,212,98);fill-rule:nonzero;"/>
        <path d="M288,204L288,201L287,201L286,200L285,200L284.311,199.828C284.107,201.189 284,202.582 284,204C284,219.464 296.536,232 312,232C312.673,232 313.338,231.968 314,231.921C299.471,230.895 288,218.791 288,204Z" style="fill:rgb(28,139,193);fill-rule:nonzero;"/>
        <path d="M305,192L305,193L306,194L307,193L306,192L305,192Z" style="fill:rgb(250,212,98);fill-rule:nonzero;"/>
        <path d="M307,192L308,193L309,192L309,191L307,191L307,192Z" style="fill:rgb(250,212,98);fill-rule:nonzero;"/>
        <path d="M288,201L290,202L291,203L293.016,203L294,204L296,204L296,205L295,206L294,209L295,211L297,213L299,213L299,215L301,219L301,221L302,223L303,226L304,227L306,227L305,226L304,224L305,221L307,220L307,217L309,216L309,214L311,213L312,210L311,208L309,207L308,206L307,206L306,204L304,203L302,203L301,204L300,202L298,202L297,203L295,203L295,202L294,201L294,200L293,200L292,201L291,199L292,198L295,198L297,199L299,197L300,193L302,191L305,191L305,189L308,190L310,188L309,188L308,186L307,185L305,186L301,186L300,188L299,187L298,187L298,185L301,184L302,185L305,184L307,184L306,182L305,181L303,181L302,182L300,183L299,182C293.072,186.619 288.735,193.095 288,201Z" style="fill:rgb(250,212,98);fill-rule:nonzero;"/>
    </g>
</svg>
